<svg xmlns="http://www.w3.org/2000/svg" xmlns:xlink="http://www.w3.org/1999/xlink" viewBox="0 0 865.91 414.52"><defs><style>.cls-1{fill:url(#Degradado_sin_nombre_118);}.cls-2{isolation:isolate;}.cls-3{fill:url(#Degradado_sin_nombre_118-2);}.cls-4{fill:url(#Degradado_sin_nombre_118-3);}.cls-5{fill:url(#Degradado_sin_nombre_118-4);}.cls-6{fill:url(#Degradado_sin_nombre_118-5);}.cls-7{fill:url(#Degradado_sin_nombre_118-6);}.cls-8{fill:url(#Degradado_sin_nombre_118-7);}.cls-9{fill:url(#Degradado_sin_nombre_118-8);}.cls-10{fill:url(#Degradado_sin_nombre_118-9);}.cls-11{fill:url(#Degradado_sin_nombre_118-10);}.cls-12{fill:url(#Degradado_sin_nombre_118-11);}.cls-13{fill:url(#Degradado_sin_nombre_118-12);}.cls-14{fill:url(#Degradado_sin_nombre_118-13);}.cls-15{fill:url(#Degradado_sin_nombre_118-14);}.cls-16{fill:url(#Degradado_sin_nombre_118-15);}.cls-17{fill:url(#Degradado_sin_nombre_118-16);}.cls-18{fill:url(#Degradado_sin_nombre_118-17);}.cls-19{fill:url(#Degradado_sin_nombre_118-18);}.cls-20{fill:url(#Degradado_sin_nombre_118-19);}.cls-21{fill:url(#Degradado_sin_nombre_118-20);}.cls-22{fill:url(#Degradado_sin_nombre_118-21);}.cls-23{fill:url(#Degradado_sin_nombre_118-22);}.cls-24{fill:url(#Degradado_sin_nombre_118-23);}.cls-25{fill:url(#Degradado_sin_nombre_118-24);}.cls-26{fill:url(#Degradado_sin_nombre_118-25);}</style><linearGradient id="Degradado_sin_nombre_118" x1="59.69" y1="4.66" x2="59.69" y2="148.66" gradientUnits="userSpaceOnUse"><stop offset="0" stop-color="#666"/><stop offset="1"/></linearGradient><linearGradient id="Degradado_sin_nombre_118-2" x1="432.81" y1="4.66" x2="432.81" y2="148.66" xlink:href="#Degradado_sin_nombre_118"/><linearGradient id="Degradado_sin_nombre_118-3" x1="340.55" y1="4.66" x2="340.55" y2="148.66" xlink:href="#Degradado_sin_nombre_118"/><linearGradient id="Degradado_sin_nombre_118-4" x1="430.7" y1="4.66" x2="430.7" y2="148.66" xlink:href="#Degradado_sin_nombre_118"/><linearGradient id="Degradado_sin_nombre_118-5" x1="521.63" y1="4.66" x2="521.63" y2="148.66" xlink:href="#Degradado_sin_nombre_118"/><linearGradient id="Degradado_sin_nombre_118-6" x1="220.94" y1="4.66" x2="220.94" y2="148.66" xlink:href="#Degradado_sin_nombre_118"/><linearGradient id="Degradado_sin_nombre_118-7" x1="323.93" y1="4.66" x2="323.93" y2="148.66" xlink:href="#Degradado_sin_nombre_118"/><linearGradient id="Degradado_sin_nombre_118-8" x1="427.95" y1="4.66" x2="427.95" y2="148.66" xlink:href="#Degradado_sin_nombre_118"/><linearGradient id="Degradado_sin_nombre_118-9" x1="533.01" y1="4.66" x2="533.01" y2="148.66" xlink:href="#Degradado_sin_nombre_118"/><linearGradient id="Degradado_sin_nombre_118-10" x1="639.13" y1="4.66" x2="639.13" y2="148.66" xlink:href="#Degradado_sin_nombre_118"/><linearGradient id="Degradado_sin_nombre_118-11" x1="179.78" y1="4.66" x2="179.78" y2="148.66" xlink:href="#Degradado_sin_nombre_118"/><linearGradient id="Degradado_sin_nombre_118-12" x1="301.27" y1="4.66" x2="301.27" y2="148.66" xlink:href="#Degradado_sin_nombre_118"/><linearGradient id="Degradado_sin_nombre_118-13" x1="424.19" y1="4.66" x2="424.19" y2="148.66" xlink:href="#Degradado_sin_nombre_118"/><linearGradient id="Degradado_sin_nombre_118-14" x1="548.58" y1="4.66" x2="548.58" y2="148.66" xlink:href="#Degradado_sin_nombre_118"/><linearGradient id="Degradado_sin_nombre_118-15" x1="674.46" y1="4.66" x2="674.46" y2="148.66" xlink:href="#Degradado_sin_nombre_118"/><linearGradient id="Degradado_sin_nombre_118-16" x1="801.84" y1="4.66" x2="801.84" y2="148.66" xlink:href="#Degradado_sin_nombre_118"/><linearGradient id="Degradado_sin_nombre_118-17" x1="120.44" y1="4.66" x2="120.44" y2="148.66" xlink:href="#Degradado_sin_nombre_118"/><linearGradient id="Degradado_sin_nombre_118-18" x1="268.54" y1="4.66" x2="268.54" y2="148.66" xlink:href="#Degradado_sin_nombre_118"/><linearGradient id="Degradado_sin_nombre_118-19" x1="418.78" y1="4.66" x2="418.78" y2="148.66" xlink:href="#Degradado_sin_nombre_118"/><linearGradient id="Degradado_sin_nombre_118-20" x1="571.21" y1="4.66" x2="571.21" y2="148.66" xlink:href="#Degradado_sin_nombre_118"/><linearGradient id="Degradado_sin_nombre_118-21" x1="725.87" y1="4.66" x2="725.87" y2="148.66" xlink:href="#Degradado_sin_nombre_118"/><linearGradient id="Degradado_sin_nombre_118-22" x1="217.11" y1="4.66" x2="217.11" y2="148.66" xlink:href="#Degradado_sin_nombre_118"/><linearGradient id="Degradado_sin_nombre_118-23" x1="410.27" y1="4.66" x2="410.27" y2="148.66" xlink:href="#Degradado_sin_nombre_118"/><linearGradient id="Degradado_sin_nombre_118-24" x1="607.06" y1="4.66" x2="607.06" y2="148.66" xlink:href="#Degradado_sin_nombre_118"/><linearGradient id="Degradado_sin_nombre_118-25" x1="394.96" y1="4.66" x2="394.96" y2="148.66" xlink:href="#Degradado_sin_nombre_118"/></defs><title>Recurso 1</title><g id="Capa_2" data-name="Capa 2"><g id="Capa_1-2" data-name="Capa 1"><polygon class="cls-1" points="91.63 50.74 119.39 67.18 21.07 83.74 0 64.33 91.63 50.74"/><g class="cls-2"><polygon class="cls-3" points="433.62 0 472.73 7.69 431.74 14.59 392.88 6.04 433.62 0"/><polygon class="cls-4" points="347.22 12.82 385.44 22.39 332.72 31.26 295.67 20.47 347.22 12.82"/><polygon class="cls-5" points="431.74 14.59 475.97 24.33 429.31 33.38 385.44 22.39 431.74 14.59"/><polygon class="cls-6" points="516.94 16.38 567.3 26.29 526.8 35.52 475.97 24.33 516.94 16.38"/><polygon class="cls-7" points="237.02 29.17 272.18 41.46 201.92 53.29 169.7 39.15 237.02 29.17"/><polygon class="cls-8" points="332.72 31.26 375.68 43.78 313.39 55.86 272.18 41.46 332.72 31.26"/><polygon class="cls-9" points="429.31 33.38 480.22 46.13 426.07 58.47 375.68 43.78 429.31 33.38"/><polygon class="cls-10" points="526.8 35.52 585.8 48.5 539.98 61.1 480.22 46.13 526.8 35.52"/><polygon class="cls-11" points="625.19 37.67 692.46 50.9 655.14 63.76 585.8 48.5 625.19 37.67"/><polygon class="cls-12" points="201.92 53.29 240.17 70.07 152.84 87 119.39 67.18 201.92 53.29"/><polygon class="cls-13" points="313.39 55.86 362.37 72.98 286.32 90.31 240.17 70.07 313.39 55.86"/><polygon class="cls-14" points="426.07 58.47 486.02 75.94 421.53 93.67 362.37 72.98 426.07 58.47"/><polygon class="cls-15" points="539.98 61.1 611.15 78.92 558.52 97.06 486.02 75.94 539.98 61.1"/><polygon class="cls-16" points="655.14 63.76 737.77 81.95 697.31 100.5 611.15 78.92 655.14 63.76"/><polygon class="cls-17" points="771.55 66.45 865.91 85.01 837.93 103.99 737.77 81.95 771.55 66.45"/><polygon class="cls-18" points="152.84 87 193.96 111.36 79.39 137.47 46.92 107.55 152.84 87"/><polygon class="cls-19" points="286.32 90.31 343.11 115.23 245.69 142.01 193.96 111.36 286.32 90.31"/><polygon class="cls-20" points="421.53 93.67 494.44 119.15 414.71 146.63 343.11 115.23 421.53 93.67"/><polygon class="cls-21" points="558.52 97.06 647.97 123.13 586.49 151.33 494.44 119.15 558.52 97.06"/><polygon class="cls-22" points="697.31 100.5 803.76 127.17 761.11 156.1 647.97 123.13 697.31 100.5"/><polygon class="cls-23" points="245.69 142.01 312.8 181.76 177.94 228.25 121.42 176.18 245.69 142.01"/><polygon class="cls-24" points="414.71 146.63 507.74 187.45 403.27 235.36 312.8 181.76 414.71 146.63"/><polygon class="cls-25" points="586.49 151.33 706.37 193.24 633.55 242.64 507.74 187.45 586.49 151.33"/><polygon class="cls-26" points="403.27 235.36 531.92 311.58 380.16 414.52 258 301.99 403.27 235.36"/></g></g></g></svg>